
#c3 middle c

#setup
#0:Squ; 1:Squ; 2:Squ; 7:Squ \
0:Saw; 1:Saw; 2:Saw; 7:Saw \
0:Vol,10485759; 1:Vol,10485759; 2:Vol,10485759; \
Delay:160000; \
0,1,2,7:ADSR,100,0xFFFFC0,0x1FFFFF,0xFFFF10; \
#0,1,2,7:ADSR,10000,0xFFFF00,0x1FFFFF,0xFFFFFF; \

#intro
#1
7:F2;		0:C4; 1:A4;
.
.
7:F3;
.
7:C3;
7:A3;
7:F2;
#2
7:C2;		0:C4; 1:G3; 2:E3;
.
.
7:C3;
.
7:G2;
7:E2;
7:C2;
#3
7:G1;		0:D4; 1:B4; 2:G3;
.
.
7:G2;
.
7:D2;
7:B2;
7:G1;
#4
1:off; 2:off; \
7:A2;		0:E4;
.
7:B2;		0:D4;
.
7:A2;		0:C4;
.
7:G1;		0:B4;
.
#5
7:F1;		0:C4; 1:E4;
.
.
7:F2;
.
7:C2;
7:A2;
7:F1;
#6
7:C2;		0:C4; 1:G3; 2:E3;
.
.
7:C3;
.
7:G2;
7:E2;
7:C2;
#7
7:F1;		0:D4; 1:B4; 2:G3;
.
7:F1;		0:D4; 1:B4; 2:G3;
.
7:F1;		0:D4; 1:B4; 2:G3;
.
7:F1;		0:D4; 1:B4; 2:G3;
.
#8
7:G2;		0:D4; 1:B4; 2:G3;
.
.
.
.
.
.
.
7:off;		0:off; 1:off; 2:off; \

#Melody 1
# 1
7:C2;
.
			0:E4;
.
			0:E4;
.
			0:E4;
.
7:off; \
#2
			0:E4;
.
			0:D4;
			0:C4;
.
.
			0:A4;
.
#3
7:A2;		0:C4;
.
			0:A4;
.
			0:C4;
.
			0:D4;
.
7:off; \
#4
			0:C4;
.
			0:A4;
.
.
.
			0:G3;
.
5
7:C2;
.
			0:E4;
.
			0:E4;
.
			0:E4;
.
7:off; \
#6
			0:E4;
.
			0:D4;
			0:C4;
.
.
			0:A4;
.
#7
7:A2;		0:C4;
.
			0:A4;
.
			0:C4;
.
			0:D4;
.
7:off; \
#8
			0:C4;
.
.
.
.
.
			0:E4;
.

#9
7:F2;
.
			0:F4;
.
			0:F4;
.
			0:F4;
.
7:off; \
#10
			0:F4;
.
			0:F4;
			0:F4;
.
.
			0:G4;
.
#11
7:C2;		0:F4;
.
			0:E4;
.
			0:E4;
.
			0:D4;
.
7:off; \
#11
			0:D4;
.
			0:C4;
.
.
.
			0:C4;
.
#12
7:G1;		0:D4;
.
7:G1;		0:D4;
.
7:G1;		0:D4;
.
7:G1;		0:D4;
.
#13
7:G$1;		0:D4;
.
7:G$1;		0:D4;
.
7:G$1;		0:D4;
.
7:G$1;		0:D4;
.
#14
7:G1;		0:D4;
.
.
.
.
.
.
.
#15
.
.
7:off; \

#Melody 2
# 1
7:C2;
.
			0:E4;
.
			0:E4;
.
			0:E4;
.
7:off; \
#2
			0:E4;
.
			0:D4;
			0:C4;
.
.
			0:A4;
.
#3
7:A2;		0:C4;
.
			0:A4;
.
			0:C4;
.
			0:D4;
.
7:off; \
#4
			0:C4;
.
			0:A4;
.
.
.
			0:G3;
.
5
7:C2;
.
			0:E4;
.
			0:E4;
.
			0:E4;
.
7:off; \
#6
			0:E4;
.
			0:D4;
			0:C4;
.
.
			0:A4;
.
#7
7:A2;		0:C4;
.
			0:A4;
.
			0:C4;
.
			0:D4;
.
7:off; \
#8
			0:C4;
.
.
.
.
.
			0:E4;
.

#9
7:F2;
.
			0:F4;
.
			0:F4;
.
			0:F4;
.
7:off; \
#10
			0:F4;
.
			0:F4;
			0:F4;
.
.
			0:G4;
.
#11
7:C2;		0:F4;
.
			0:E4;
.
			0:E4;
.
			0:D4;
.
7:off; \
#11
			0:D4;
.
			0:C4;
.
.
.
			0:C4;
.
#12
7:G1;		0:D4;
.
7:G1;		0:D4;
.
7:G1;		0:D4;
.
7:G1;		0:D4;
.
#13
7:G$1;		0:D4;
.
7:G$1;		0:D4;
.
7:G$1;		0:D4;
.
7:G$1;		0:D4;
.
#14
7:G1;		0:D4;
.
.
.
.
.
.
.
#15
.
.
7:off; \

#Chorus
#1
.
.
			0:G3;
.
			0:C4;
.
			0:B4;
.
#2
7:F2;		0:A4;
.
.
			0:C4;
.
.
7:F2;		0:A4;
.
#3
7:C2;		0:G3;
.
.
			0:C4;
.
.
7:C2;
.
#4
7:E2;		0:D4;
.
			0:C4;
.
7:E$2;		0:D4;
.
			0:C4;
.
#5
7:A3;		0:E4;
.
7:B3;		0:D4;
.
7:A3;		0:C4;
.
7:G2;		0:B4;
.
#6
7:F2;		0:A4;
.
.
			0:C4;
.
.
7:F2;		0:A4;
.
#7
7:C2;		0:G3;
.
.
			0:C4;
.
.
7:C2;
.
#8
7:G2;		0:D4;
.
7:G2;		0:D4;
.
7:G2;		0:D4;
.
7:G2;		0:D4;
.
#9
7:G$2;		0:D4;
.
7:G$2;		0:D4;
.
7:G$2;		0:D4;
.
7:G$2;		0:D4;
.
#10
7:G2;		0:D4;
.
.
.
.
.
.
.
#11
.
.
7:off; 		0:off; \

#Melody 3
# 1
7:C2;
.
			0:E4;
.
			0:E4;
.
			0:E4;
.
7:off; \
#2
			0:E4;
.
			0:D4;
			0:C4;
.
.
			0:A4;
.
#3
7:A2;		0:C4;
.
			0:A4;
.
			0:C4;
.
			0:D4;
.
7:off; \
#4
			0:C4;
.
			0:A4;
.
.
.
			0:G3;
.
5
7:C2;
.
			0:E4;
.
			0:E4;
.
			0:E4;
.
7:off; \
#6
			0:E4;
.
			0:D4;
			0:C4;
.
.
			0:A4;
.
#7
7:A2;		0:C4;
.
			0:A4;
.
			0:C4;
.
			0:D4;
.
7:off; \
#8
			0:C4;
.
.
.
.
.
			0:E4;
.

#9
7:F2;
.
			0:F4;
.
			0:F4;
.
			0:F4;
.
7:off; \
#10
			0:F4;
.
			0:F4;
			0:F4;
.
.
			0:G4;
.
#11
7:C2;		0:F4;
.
			0:E4;
.
			0:E4;
.
			0:D4;
.
7:off; \
#11
			0:D4;
.
			0:C4;
.
.
.
			0:C4;
.
#12
7:G1;		0:D4;
.
7:G1;		0:D4;
.
7:G1;		0:D4;
.
7:G1;		0:D4;
.
#13
7:G$1;		0:D4;
.
7:G$1;		0:D4;
.
7:G$1;		0:D4;
.
7:G$1;		0:D4;
.
#14
7:G1;		0:D4;
.
.
.
.
.
.
.
#15
.
.
7:off; 		0:off; \

#Chorus 2
#1
.
.
			0:G3;
.
			0:C4;
.
			0:B4;
.
#2
7:F2;		0:A4;
.
.
			0:C4;
.
.
7:F2;		0:A4;
.
#3
7:C2;		0:G3;
.
.
			0:C4;
.
.
7:C2;
.
#4
7:E2;		0:D4;
.
			0:C4;
.
7:E$2;		0:D4;
.
			0:C4;
.
#5
7:A3;		0:E4;
.
7:B3;		0:D4;
.
7:A3;		0:C4;
.
7:G2;		0:B4;
.
#6
7:F2;		0:A4;
.
.
			0:C4;
.
.
7:F2;		0:A4;
.
#7
7:C2;		0:G3;
.
.
			0:C4;
.
.
7:C2;
.
#8
7:G2;		0:D4;
.
7:G2;		0:D4;
.
7:G2;		0:D4;
.
7:G2;		0:D4;
.
#9
7:G$2;		0:D4;
.
7:G$2;		0:D4;
.
7:G$2;		0:D4;
.
7:G$2;		0:D4;
.
#10
7:G2;		0:D4;
.
.
.
.
.
.
.
#11
.
.
7:off; 		0:off; \


#Chorus 3
#1
.
.
			0:G3;
.
			0:C4;
.
			0:B4;
.
#2
7:F2;		0:A4;
.
.
			0:C4;
.
.
7:F2;		0:A4;
.
#3
7:C2;		0:G3;
.
.
			0:C4;
.
.
7:C2;
.
#4
7:E2;		0:D4;
.
			0:C4;
.
7:E$2;		0:D4;
.
			0:C4;
.
#5
7:A3;		0:E4;
.
7:B3;		0:D4;
.
7:A3;		0:C4;
.
7:G2;		0:B4;
.
#6
7:F2;		0:A4;
.
.
			0:C4;
.
.
7:F2;		0:A4;
.
#7
7:C2;		0:G3;
.
.
			0:C4;
.
.
7:C2;
.
#8
7:G2;		0:D4;
.
7:G2;		0:D4;
.
7:G2;		0:D4;
.
7:G2;		0:D4;
.
#9
7:G$2;		0:D4;
.
7:G$2;		0:D4;
.
7:G$2;		0:D4;
.
7:G$2;		0:D4;
.
#10
7:G2;		0:D4;
.
.
.
.
.
.
.
#11
.
.
7:off; 		0:off; \

end;

